G04 start of page 7 for group -4079 idx -4079 *
G04 Title: (unknown), topsilk *
G04 Creator: pcb 20091103 *
G04 CreationDate: Fri 21 Oct 2011 08:04:06 AM GMT UTC *
G04 For: kampai *
G04 Format: Gerber/RS-274X *
G04 PCB-Dimensions: 600000 500000 *
G04 PCB-Coordinate-Origin: lower left *
%MOIN*%
%FSLAX25Y25*%
%LNFRONTSILK*%
%ADD18C,0.0119*%
%ADD19C,0.0102*%
%ADD20C,0.0100*%
G54D19*X247487Y385433D02*X252567D01*
G54D18*X247089Y358685D02*X253049D01*
X250069Y361665D02*Y355705D01*
G54D20*X245000Y363000D02*X255000D01*
Y383000D02*Y363000D01*
X245000Y383000D02*X255000D01*
X245000D02*Y363000D01*
X255000Y373000D02*Y363000D01*
X245000Y373000D02*X255000D01*
X270000Y361000D02*Y357000D01*
X268000Y359000D02*X272000D01*
X270000Y389000D02*Y385000D01*
Y363000D02*G75*G03X270000Y363000I0J10000D01*G01*
X283165Y367980D02*X287165D01*
Y369980D02*Y367980D01*
X285165Y372681D02*Y371181D01*
X287165Y373181D02*Y371181D01*
X283165D02*X287165D01*
X283165Y373181D02*Y371181D01*
Y374882D02*X287165D01*
X283165Y376382D02*X283665Y376882D01*
X286665D01*
X287165Y376382D02*X286665Y376882D01*
X287165Y376382D02*Y374382D01*
X283165Y376382D02*Y374382D01*
M02*
